<svg xmlns="http://www.w3.org/2000/svg" viewBox="0 0 120 120" width="120" height="120">
  <rect width="120" height="120" rx="24" fill="#171717"/>
  <!-- fish mark, scaled to fit a 120x120 square with padding -->
  <g transform="translate(4, 28) scale(0.98)">
    <path fill-rule="evenodd" clip-rule="evenodd" d="M8.29092 46.9233L22.2216 30.5054L8.29092 14.1082C6.76144 12.3232 6.96812 9.64565 8.74562 8.10971C9.5517 7.42476 12.7967 6.40771 14.6982 8.56633L27.9055 24.1125C29.6353 22.3619 31.4401 20.7416 33.3113 19.2558C42.8873 11.6516 54.1988 7.57005 66.0599 7.57005C81.7681 7.57005 96.5049 14.7516 107.542 27.7448C108.885 29.343 108.885 31.6885 107.542 33.2867C96.5049 46.3006 81.7681 53.4614 66.0599 53.4614C54.2003 53.4614 42.8902 49.3664 33.3149 41.7715C31.4425 40.2863 29.6364 38.6673 27.9055 36.9189L14.6982 52.4651C13.1687 54.2502 10.5231 54.4577 8.74562 52.9218C6.98878 51.4066 6.78211 48.7083 8.29092 46.9233Z" fill="#A3E635"/>
    <path fill-rule="evenodd" clip-rule="evenodd" d="M8.29086 46.9233L22.2215 30.5054L8.29086 14.1082C6.76137 12.3232 6.96804 9.64566 8.74554 8.10972C9.55163 7.42477 12.7966 6.40773 14.6981 8.56635L27.9054 24.1126C29.6352 22.3619 31.4401 20.7416 33.3112 19.2558C42.8873 11.6516 54.1988 7.57007 66.0599 7.57007C81.7681 7.57007 96.5049 14.7516 107.542 27.7448C108.885 29.343 108.885 31.6885 107.542 33.2867C96.5049 46.3007 81.7681 53.4615 66.0599 53.4615C54.2003 53.4615 42.8901 49.3664 33.3148 41.7715C31.4424 40.2863 29.6363 38.6673 27.9054 36.919L14.6981 52.4652C13.1686 54.2502 10.5231 54.4577 8.74554 52.9218C6.98871 51.4066 6.78204 48.7083 8.29086 46.9233ZM28.6098 47.3097C39.4227 55.9499 52.3664 60.7243 66.0599 60.7243C84.3681 60.7243 101.402 51.8192 113.104 37.9591C116.687 33.6973 116.672 27.2944 113.08 23.0438C100.801 8.58842 84.1057 0.307251 66.0599 0.307251C52.3707 0.307251 39.4243 5.06437 28.6063 13.7176L20.1508 3.76653C17.2688 0.494869 13.476 -0.136509 10.869 0.0223351C9.55831 0.1022 8.35268 0.378754 7.32846 0.740417C6.1197 1.16724 4.97045 1.77887 3.99434 2.61514C-0.796738 6.75509 -1.36906 13.9985 2.77293 18.8329L12.6921 30.5084L2.74133 42.2358C-1.31221 47.0313 -0.802719 54.2743 3.99434 58.4164C8.75052 62.5295 16.1286 61.9602 20.2161 57.1898L28.6098 47.3097Z" fill="#ffffff"/>
  </g>
</svg>
